{
  "accessors": [
    {
      "bufferView": 2,
      "componentType": 5126,
      "count": 2388,
      "max": [
        132.01600646972656,
        31.783300399780273,
        352.4910888671875
      ],
      "min": [
        -132.01600646972656,
        -32.12929916381836,
        -4.7291998863220215
      ],
      "type": "VEC3"
    },
    {
      "bufferView": 2,
      "byteOffset": 28656,
      "componentType": 5126,
      "count": 2388,
      "max": [
        1.0,
        1.0,
        1.0
      ],
      "min": [
        -1.0,
        -1.0,
        -1.0
      ],
      "type": "VEC3"
    },
    {
      "bufferView": 3,
      "componentType": 5126,
      "count": 2388,
      "max": [
        1.0,
        0.8567070364952087,
        0.7660195827484131,
        1.0
      ],
      "min": [
        -0.6428163051605225,
        -0.8571901917457581,
        -1.0,
        1.0
      ],
      "type": "VEC4"
    },
    {
      "bufferView": 1,
      "componentType": 5126,
      "count": 2388,
      "max": [
        0.9940000176429749,
        0.9994999766349792
      ],
      "min": [
        0.0005000000237487257,
        0.0005000000237487257
      ],
      "type": "VEC2"
    },
    {
      "bufferView": 0,
      "componentType": 5125,
      "count": 6717,
      "type": "SCALAR"
    },
    {
      "bufferView": 2,
      "byteOffset": 57312,
      "componentType": 5126,
      "count": 3016,
      "max": [
        132.01600646972656,
        32.12929916381836,
        352.1451110839844
      ],
      "min": [
        -132.01600646972656,
        -31.303600311279297,
        -4.7291998863220215
      ],
      "type": "VEC3"
    },
    {
      "bufferView": 2,
      "byteOffset": 93504,
      "componentType": 5126,
      "count": 3016,
      "max": [
        1.0,
        0.9763398170471191,
        0.9999994039535522
      ],
      "min": [
        -1.0,
        -1.0,
        -0.9999994039535522
      ],
      "type": "VEC3"
    },
    {
      "bufferView": 3,
      "byteOffset": 38208,
      "componentType": 5126,
      "count": 3016,
      "max": [
        0.999999463558197,
        0.7565677165985107,
        0.7476680874824524,
        1.0
      ],
      "min": [
        -0.7793225646018982,
        -0.7577947378158569,
        -1.0,
        1.0
      ],
      "type": "VEC4"
    },
    {
      "bufferView": 1,
      "byteOffset": 19104,
      "componentType": 5126,
      "count": 3016,
      "max": [
        0.9937000274658203,
        0.9986000061035156
      ],
      "min": [
        0.0005000000237487257,
        0.018699999898672104
      ],
      "type": "VEC2"
    },
    {
      "bufferView": 0,
      "byteOffset": 26868,
      "componentType": 5125,
      "count": 10224,
      "type": "SCALAR"
    }
  ],
  "asset": {
    "extras": {
      "author": "andree (https://sketchfab.com/maestronoov)",
      "license": "CC-BY-4.0 (http://creativecommons.org/licenses/by/4.0/)",
      "source": "https://sketchfab.com/3d-models/locker-6ab96c76558f43a3b0e1442bc0065f68",
      "title": "Locker"
    },
    "generator": "Sketchfab-12.65.0",
    "version": "2.0"
  },
  "bufferViews": [
    {
      "buffer": 0,
      "byteLength": 67764,
      "name": "floatBufferViews",
      "target": 34963
    },
    {
      "buffer": 0,
      "byteLength": 43232,
      "byteOffset": 67764,
      "byteStride": 8,
      "name": "floatBufferViews",
      "target": 34962
    },
    {
      "buffer": 0,
      "byteLength": 129696,
      "byteOffset": 110996,
      "byteStride": 12,
      "name": "floatBufferViews",
      "target": 34962
    },
    {
      "buffer": 0,
      "byteLength": 86464,
      "byteOffset": 240692,
      "byteStride": 16,
      "name": "floatBufferViews",
      "target": 34962
    }
  ],
  "buffers": [
    {
      "byteLength": 327156,
      "uri": "scene.bin"
    }
  ],
  "images": [
    {
      "uri": "textures/wire_057008136_baseColor.png"
    },
    {
      "uri": "textures/wire_057008136_metallicRoughness.png"
    },
    {
      "uri": "textures/wire_057008136_normal.png"
    }
  ],
  "materials": [
    {
      "doubleSided": true,
      "name": "wire_057008136",
      "normalTexture": {
        "index": 2
      },
      "pbrMetallicRoughness": {
        "baseColorTexture": {
          "index": 0
        },
        "metallicRoughnessTexture": {
          "index": 1
        }
      }
    }
  ],
  "meshes": [
    {
      "name": "Object_0",
      "primitives": [
        {
          "attributes": {
            "NORMAL": 1,
            "POSITION": 0,
            "TANGENT": 2,
            "TEXCOORD_0": 3
          },
          "indices": 4,
          "material": 0,
          "mode": 4
        }
      ]
    },
    {
      "name": "Object_1",
      "primitives": [
        {
          "attributes": {
            "NORMAL": 6,
            "POSITION": 5,
            "TANGENT": 7,
            "TEXCOORD_0": 8
          },
          "indices": 9,
          "material": 0,
          "mode": 4
        }
      ]
    }
  ],
  "nodes": [
    {
      "children": [
        1
      ],
      "matrix": [
        0.0056338259018957615,
        0.0,
        0.0,
        0.0,
        0.0,
        1.2509606466028526e-18,
        -0.0056338259018957615,
        0.0,
        0.0,
        0.0056338259018957615,
        1.2509606466028526e-18,
        0.0,
        0.0,
        0.0,
        0.0,
        1.0
      ],
      "name": "Sketchfab_model"
    },
    {
      "children": [
        2,
        3
      ],
      "name": "casillero.obj.cleaner.materialmerger.gles"
    },
    {
      "mesh": 0,
      "name": "Object_2"
    },
    {
      "mesh": 1,
      "name": "Object_3"
    }
  ],
  "samplers": [
    {
      "magFilter": 9729,
      "minFilter": 9987,
      "wrapS": 10497,
      "wrapT": 10497
    }
  ],
  "scene": 0,
  "scenes": [
    {
      "name": "Sketchfab_Scene",
      "nodes": [
        0
      ]
    }
  ],
  "textures": [
    {
      "sampler": 0,
      "source": 0
    },
    {
      "sampler": 0,
      "source": 1
    },
    {
      "sampler": 0,
      "source": 2
    }
  ]
}
